<svg xmlns="http://www.w3.org/2000/svg" version="1.1" xmlns:xlink="http://www.w3.org/1999/xlink" xmlns:svgjs="http://svgjs.dev/svgjs" width="1000" height="212" viewBox="0 0 1000 212"><g transform="matrix(1,0,0,1,-0.606041203312941,0.08970446851056124)"><svg viewBox="0 0 396 84" data-background-color="#ea3c12" preserveAspectRatio="xMidYMid meet" height="212" width="1000" xmlns="http://www.w3.org/2000/svg" xmlns:xlink="http://www.w3.org/1999/xlink"><g id="tight-bounds" transform="matrix(1,0,0,1,0.23999231651191621,-0.035543279975883024)"><svg viewBox="0 0 395.52 84.07108655995175" height="84.07108655995175" width="395.52"><g><svg viewBox="0 0 518.3575790177607 110.18124214858716" height="84.07108655995175" width="395.52"><g transform="matrix(1,0,0,1,122.8375790177607,15.227653582040631)"><svg viewBox="0 0 395.52 79.7259349845059" height="79.7259349845059" width="395.52"><g id="textblocktransform"><svg viewBox="0 0 395.52 79.7259349845059" height="79.7259349845059" width="395.52" id="textblock"><g><svg viewBox="0 0 395.52 53.60963855421686" height="53.60963855421686" width="395.52"><g transform="matrix(1,0,0,1,0,0)"><svg width="395.52" viewBox="4.349999904632568 -35.5 265.5799865722656 36" height="53.60963855421686" data-palette-color="#f89d3d"><g class="wordmark-text-0" data-fill-palette-color="primary" id="text-0"><path d="M17.1 0L5.5 0Q4.95 0 4.65-0.33 4.35-0.65 4.35-1.15L4.35-1.15 4.35-33.8Q4.35-34.35 4.65-34.68 4.95-35 5.5-35L5.5-35 16.85-35Q22-35 25.15-33.45 28.3-31.9 29.75-28.88 31.2-25.85 31.25-21.45L31.25-21.45Q31.3-19.2 31.3-17.5 31.3-15.8 31.25-13.6L31.25-13.6Q31.15-9 29.73-5.98 28.3-2.95 25.23-1.48 22.15 0 17.1 0L17.1 0ZM9.25-30.75L9.25-4.25 16.85-4.25Q20.3-4.25 22.35-5.2 24.4-6.15 25.33-8.25 26.25-10.35 26.3-13.8L26.3-13.8Q26.4-15.3 26.4-16.43 26.4-17.55 26.4-18.68 26.4-19.8 26.3-21.25L26.3-21.25Q26.2-26.1 24-28.43 21.8-30.75 16.6-30.75L16.6-30.75 9.25-30.75ZM42.5 0L39.95 0Q39.4 0 39.1-0.33 38.8-0.65 38.8-1.15L38.8-1.15 38.8-33.8Q38.8-34.35 39.1-34.68 39.4-35 39.95-35L39.95-35 52.15-35Q57.8-35 61.1-32.35 64.4-29.7 64.4-24.5L64.4-24.5Q64.4-20.65 62.47-18.23 60.55-15.8 57.25-14.85L57.25-14.85 64.95-1.55Q65.1-1.25 65.1-1L65.1-1Q65.1-0.6 64.77-0.3 64.45 0 64.05 0L64.05 0 61.65 0Q60.8 0 60.4-0.45 60-0.9 59.7-1.35L59.7-1.35 52.45-14.05 43.7-14.05 43.7-1.15Q43.7-0.65 43.37-0.33 43.05 0 42.5 0L42.5 0ZM43.7-30.8L43.7-18.3 51.95-18.3Q55.7-18.3 57.55-19.88 59.4-21.45 59.4-24.55L59.4-24.55Q59.4-27.6 57.57-29.2 55.75-30.8 51.95-30.8L51.95-30.8 43.7-30.8ZM71.75 0L69.2 0Q68.8 0 68.5-0.3 68.2-0.6 68.2-1L68.2-1Q68.2-1.25 68.25-1.55L68.25-1.55 80.65-33.9Q80.85-34.4 81.2-34.7 81.55-35 82.25-35L82.25-35 85.65-35Q86.35-35 86.7-34.7 87.05-34.4 87.25-33.9L87.25-33.9 99.59-1.55Q99.7-1.25 99.7-1L99.7-1Q99.7-0.6 99.4-0.3 99.1 0 98.7 0L98.7 0 96.15 0Q95.55 0 95.27-0.3 95-0.6 94.9-0.85L94.9-0.85 92.15-7.95 75.75-7.95 73-0.85Q72.95-0.6 72.65-0.3 72.35 0 71.75 0L71.75 0ZM83.95-30L77.2-12.25 90.7-12.25 83.95-30ZM108.64 0L106.19 0Q105.69 0 105.37-0.33 105.04-0.65 105.04-1.15L105.04-1.15 105.04-33.8Q105.04-34.35 105.37-34.68 105.69-35 106.19-35L106.19-35 108.69-35Q109.29-35 109.59-34.7 109.89-34.4 109.99-34.2L109.99-34.2 120.54-14 131.19-34.2Q131.29-34.4 131.57-34.7 131.84-35 132.44-35L132.44-35 134.89-35Q135.44-35 135.77-34.68 136.09-34.35 136.09-33.8L136.09-33.8 136.09-1.15Q136.09-0.65 135.77-0.33 135.44 0 134.89 0L134.89 0 132.44 0Q131.94 0 131.62-0.33 131.29-0.65 131.29-1.15L131.29-1.15 131.29-25.75 122.94-9.45Q122.74-8.95 122.34-8.68 121.94-8.4 121.34-8.4L121.34-8.4 119.79-8.4Q119.14-8.4 118.79-8.68 118.44-8.95 118.19-9.45L118.19-9.45 109.79-25.75 109.79-1.15Q109.79-0.65 109.47-0.33 109.14 0 108.64 0L108.64 0ZM144.94 0L142.39 0Q141.99 0 141.69-0.3 141.39-0.6 141.39-1L141.39-1Q141.39-1.25 141.44-1.55L141.44-1.55 153.84-33.9Q154.04-34.4 154.39-34.7 154.74-35 155.44-35L155.44-35 158.84-35Q159.54-35 159.89-34.7 160.24-34.4 160.44-33.9L160.44-33.9 172.79-1.55Q172.89-1.25 172.89-1L172.89-1Q172.89-0.6 172.59-0.3 172.29 0 171.89 0L171.89 0 169.34 0Q168.74 0 168.47-0.3 168.19-0.6 168.09-0.85L168.09-0.85 165.34-7.95 148.94-7.95 146.19-0.85Q146.14-0.6 145.84-0.3 145.54 0 144.94 0L144.94 0ZM157.14-30L150.39-12.25 163.89-12.25 157.14-30ZM190.84 0.5L190.84 0.5Q186.24 0.5 183.21-1.2 180.19-2.9 178.64-5.95 177.09-9 176.94-13.05L176.94-13.05Q176.89-15.1 176.89-17.45 176.89-19.8 176.94-21.95L176.94-21.95Q177.09-26 178.64-29.05 180.19-32.1 183.21-33.8 186.24-35.5 190.84-35.5L190.84-35.5Q194.29-35.5 196.89-34.55 199.49-33.6 201.21-32 202.94-30.4 203.84-28.43 204.74-26.45 204.84-24.35L204.84-24.35Q204.89-23.9 204.56-23.6 204.24-23.3 203.79-23.3L203.79-23.3 201.04-23.3Q200.59-23.3 200.26-23.55 199.94-23.8 199.79-24.45L199.79-24.45Q198.94-28.35 196.61-29.8 194.29-31.25 190.84-31.25L190.84-31.25Q186.79-31.25 184.44-28.98 182.09-26.7 181.94-21.7L181.94-21.7Q181.79-17.6 181.94-13.3L181.94-13.3Q182.09-8.3 184.44-6.03 186.79-3.75 190.84-3.75L190.84-3.75Q194.29-3.75 196.61-5.2 198.94-6.65 199.79-10.55L199.79-10.55Q199.94-11.2 200.26-11.45 200.59-11.7 201.04-11.7L201.04-11.7 203.79-11.7Q204.24-11.7 204.56-11.43 204.89-11.15 204.84-10.7L204.84-10.7Q204.74-8.6 203.84-6.6 202.94-4.6 201.21-3 199.49-1.4 196.89-0.45 194.29 0.5 190.84 0.5ZM224.74 0.5L224.74 0.5Q220.54 0.5 217.51-1 214.49-2.5 212.86-5.58 211.24-8.65 211.24-13.5L211.24-13.5 211.24-33.8Q211.24-34.35 211.54-34.68 211.84-35 212.39-35L212.39-35 214.94-35Q215.49-35 215.81-34.68 216.14-34.35 216.14-33.8L216.14-33.8 216.14-13.4Q216.14-8.5 218.44-6.15 220.74-3.8 224.74-3.8L224.74-3.8Q228.69-3.8 231.01-6.15 233.34-8.5 233.34-13.4L233.34-13.4 233.34-33.8Q233.34-34.35 233.66-34.68 233.99-35 234.49-35L234.49-35 237.09-35Q237.59-35 237.91-34.68 238.24-34.35 238.24-33.8L238.24-33.8 238.24-13.5Q238.24-8.65 236.61-5.58 234.99-2.5 231.99-1 228.99 0.5 224.74 0.5ZM257.98 0L255.38 0Q254.88 0 254.56-0.33 254.23-0.65 254.23-1.15L254.23-1.15 254.23-30.55 244.63-30.55Q244.13-30.55 243.81-30.88 243.48-31.2 243.48-31.7L243.48-31.7 243.48-33.8Q243.48-34.35 243.81-34.68 244.13-35 244.63-35L244.63-35 268.73-35Q269.28-35 269.61-34.68 269.93-34.35 269.93-33.8L269.93-33.8 269.93-31.7Q269.93-31.2 269.61-30.88 269.28-30.55 268.73-30.55L268.73-30.55 259.18-30.55 259.18-1.15Q259.18-0.65 258.86-0.33 258.53 0 257.98 0L257.98 0Z" fill="#f89d3d" data-fill-palette-color="primary"></path></g></svg></g></svg></g><g transform="matrix(1,0,0,1,0,66.26558758554216)"><svg viewBox="0 0 232.20979200000002 13.460347398963732" height="13.460347398963732" width="232.20979200000002"><g transform="matrix(1,0,0,1,0,0)"><svg width="232.20979200000002" viewBox="0 -35.79999923706055 617.5499877929688 35.79999923706055" height="13.460347398963732" data-palette-color="#ffbe79"><path d="M0-2.15L4.85-2.15 4.85-34.95 29.4-34.95 29.4-29.4 10.75-29.4 10.75-20.15 27.5-20.15 27.5-14.9 10.75-14.9 10.75-5.55 30-5.55 30-2.15 34.85-2.15 34.85 0 0 0 0-2.15ZM54.35-2.15L67.7-2.15 67.7 0 32.7 0 32.7-2.15 46-2.15 32.85-34.95 39.45-34.95 50.2-8.85 60.95-34.95 67.55-34.95 54.35-2.15ZM67.7-2.15L72.55-2.15 72.55-34.95 97.1-34.95 97.1-29.4 78.45-29.4 78.45-20.15 95.2-20.15 95.2-14.9 78.45-14.9 78.45-5.55 97.7-5.55 97.7-2.15 102.55-2.15 102.55 0 67.7 0 67.7-2.15ZM133.19-2.15L138.04-2.15 138.04 0 127.24 0 118.89-11.75 111.14-11.75 111.14 0 100.39 0 100.39-2.15 105.24-2.15 105.24-34.95 118.24-34.95Q126.24-34.95 129.69-32.25 133.14-29.55 133.14-23.6L133.14-23.6Q133.14-14.95 125.59-12.7L125.59-12.7 133.19-2.15ZM118.49-17.1Q123.49-17.1 125.29-18.65 127.09-20.2 127.09-23.63 127.09-27.05 125.24-28.33 123.39-29.6 118.64-29.6L118.64-29.6 111.14-29.6 111.14-17.1 118.49-17.1ZM136.79-2.15L149.39-2.15 149.39-13.8 136.39-34.95 142.84-34.95 152.39-19.05 161.94-34.95 168.39-34.95 155.39-13.8 155.39-2.15 167.99-2.15 167.99 0 136.79 0 136.79-2.15ZM186.04-2.15L198.19-2.15 198.19 0 167.99 0 167.99-2.15 180.14-2.15 180.14-29.55 169.54-29.55 169.54-34.95 196.64-34.95 196.64-29.55 186.04-29.55 186.04-2.15ZM237.03 0L237.03-2.15 232.19-2.15 232.19-34.95 226.28-34.95 226.28-19.8 208.94-19.8 208.94-34.95 203.03-34.95 203.03 0 208.94 0 208.94-14.3 226.28-14.3 226.28 0 237.03 0ZM198.19-2.15L203.03-2.15 203.03 0 198.19 0 198.19-2.15ZM237.03-2.15L241.88-2.15 241.88-34.95 247.78-34.95 247.78-2.15 252.63-2.15 252.63 0 237.03 0 237.03-2.15ZM252.63-2.15L257.48-2.15 257.48-34.95 263.38-34.95 283.68-8.85 283.68-34.95 289.58-34.95 289.58-2.15 294.43-2.15 294.43 0 283.18 0 263.38-25.5 263.38 0 252.63 0 252.63-2.15ZM324.88-2.15L332.28-2.15 332.28 0 294.43 0 294.43-2.15 306.53-2.15Q302.18-4.35 299.6-8.6 297.03-12.85 297.03-18.2L297.03-18.2Q297.03-25.85 302.33-30.83 307.63-35.8 315.2-35.8 322.78-35.8 327.78-31.4L327.78-31.4 324.63-26.9Q322.58-28.65 320.5-29.33 318.43-30 315.68-30L315.68-30Q310.33-30 306.75-26.8 303.18-23.6 303.18-18.05 303.18-12.5 306.68-9.13 310.18-5.75 315.15-5.75 320.13-5.75 323.48-7.9L323.48-7.9 323.48-17.5 329.38-17.5 329.38-5.55Q327.53-3.5 324.88-2.15L324.88-2.15ZM332.28-2.15L345.98-2.15 345.98 0 332.28 0 332.28-2.15ZM345.97-2.15L358.57-2.15 358.57-13.8 345.57-34.95 352.02-34.95 361.57-19.05 371.12-34.95 377.57-34.95 364.57-13.8 364.57-2.15 377.17-2.15 377.17 0 345.97 0 345.97-2.15ZM407.72-2.15L419.17-2.15 419.17 0 377.17 0 377.17-2.15 388.62-2.15Q384.52-4.5 382.15-8.6 379.77-12.7 379.77-17.75L379.77-17.75Q379.77-25.45 385.07-30.63 390.37-35.8 398.17-35.8 405.97-35.8 411.27-30.63 416.57-25.45 416.57-17.75L416.57-17.75Q416.57-12.75 414.19-8.6 411.82-4.45 407.72-2.15L407.72-2.15ZM406.94-26.7Q403.37-30.4 398.17-30.4 392.97-30.4 389.4-26.7 385.82-23 385.82-17.73 385.82-12.45 389.4-8.75 392.97-5.05 398.17-5.05 403.37-5.05 406.94-8.75 410.52-12.45 410.52-17.73 410.52-23 406.94-26.7ZM447.17-2.15L457.57-2.15 457.57 0 419.17 0 419.17-2.15 429.52-2.15Q423.57-6.3 423.57-15.3L423.57-15.3 423.57-34.95 429.47-34.95 429.47-15.55Q429.47-10.75 431.87-7.95 434.27-5.15 438.37-5.15 442.47-5.15 444.87-7.95 447.27-10.75 447.27-15.55L447.27-15.55 447.27-34.95 453.17-34.95 453.17-15.3Q453.17-6.25 447.17-2.15L447.17-2.15ZM457.56-2.15L471.26-2.15 471.26 0 457.56 0 457.56-2.15ZM471.26-2.15L476.11-2.15 476.11-34.95 482.01-34.95 502.31-8.85 502.31-34.95 508.21-34.95 508.21-2.15 513.06-2.15 513.06 0 501.81 0 482.01-25.5 482.01 0 471.26 0 471.26-2.15ZM513.06-2.15L517.91-2.15 517.91-34.95 542.46-34.95 542.46-29.4 523.81-29.4 523.81-20.15 540.56-20.15 540.56-14.9 523.81-14.9 523.81-5.55 543.06-5.55 543.06-2.15 547.91-2.15 547.91 0 513.06 0 513.06-2.15ZM545.76-2.15L550.61-2.15 550.61-34.95 575.16-34.95 575.16-29.4 556.51-29.4 556.51-20.15 573.26-20.15 573.26-14.9 556.51-14.9 556.51-5.55 575.76-5.55 575.76-2.15 580.61-2.15 580.61 0 545.76 0 545.76-2.15ZM606-2.15L617.55-2.15 617.55 0 578.45 0 578.45-2.15 583.3-2.15 583.3-34.95 595.3-34.95Q604.7-34.95 609.75-30.38 614.8-25.8 614.8-17.5L614.8-17.5Q614.8-6.35 606-2.15L606-2.15ZM608.85-17.5L608.85-17.5Q608.85-29.5 595.1-29.5L595.1-29.5 589.2-29.5 589.2-5.55 595.75-5.55Q602.1-5.55 605.48-8.58 608.85-11.6 608.85-17.5Z" opacity="1" transform="matrix(1,0,0,1,0,0)" fill="#ffbe79" class="slogan-text-1" data-fill-palette-color="secondary" id="text-1"></path></svg></g></svg></g></svg></g></svg></g><g><svg viewBox="0 0 110.18162998643541 110.18124214858716" height="110.18124214858716" width="110.18162998643541"><g><svg xmlns="http://www.w3.org/2000/svg" xmlns:xlink="http://www.w3.org/1999/xlink" version="1.1" x="0" y="0" viewBox="7.734947204589844 7.735245704650879 84.53054809570312 84.5302505493164" enable-background="new 0 0 100 100" xml:space="preserve" height="110.18124214858716" width="110.18162998643541" class="icon-icon-0" data-fill-palette-color="accent" id="icon-0"><g fill="#ffbe79" data-fill-palette-color="accent"><g fill="#ffbe79" data-fill-palette-color="accent"><g fill="#ffbe79" data-fill-palette-color="accent"><path d="M28.368 14.767C42.162 16.327 48.04 25.762 49.69 30.695c1.07 3.198 1.472 5.094 1.472 9.275 0 0.817 0.044 2.076-1.054 2.216-0.77 0.099-1.209-0.509-1.273-1.182-0.289-3.026-1.159-6.569-4.008-9.85-2.253-2.594-7.472-7.802-16.652-7.021-2.669 0.228-5.052-1.868-5.129-4.564C22.964 16.703 25.531 14.446 28.368 14.767z" fill="#ffbe79" data-fill-palette-color="accent"></path><path d="M71.633 85.232c-13.794-1.561-19.671-10.995-21.322-15.929-1.07-3.198-1.472-5.094-1.472-9.275 0-0.817-0.044-2.076 1.054-2.216 0.77-0.099 1.209 0.509 1.273 1.182 0.289 3.026 1.159 6.569 4.008 9.85 2.253 2.594 7.472 7.802 16.652 7.021 2.669-0.228 5.052 1.868 5.129 4.564C77.037 83.296 74.47 85.553 71.633 85.232z" fill="#ffbe79" data-fill-palette-color="accent"></path></g><g fill="#ffbe79" data-fill-palette-color="accent"><path d="M14.768 71.633c1.56-13.794 10.995-19.672 15.928-21.322 3.198-1.07 5.094-1.472 9.276-1.472 0.817 0 2.076-0.045 2.216 1.054 0.098 0.77-0.509 1.209-1.182 1.273-3.026 0.288-6.569 1.159-9.849 4.008-2.594 2.254-7.802 7.473-7.021 16.652 0.228 2.669-1.868 5.052-4.564 5.129C16.704 77.036 14.447 74.47 14.768 71.633z" fill="#ffbe79" data-fill-palette-color="accent"></path><path d="M85.233 28.367c-1.56 13.794-10.995 19.672-15.928 21.322-3.198 1.07-5.094 1.472-9.276 1.472-0.817 0-2.076 0.045-2.216-1.054-0.098-0.77 0.509-1.209 1.182-1.273 3.026-0.288 6.569-1.159 9.849-4.008 2.594-2.254 7.802-7.473 7.021-16.652-0.228-2.669 1.868-5.052 4.564-5.129C83.297 22.964 85.554 25.53 85.233 28.367z" fill="#ffbe79" data-fill-palette-color="accent"></path></g></g><g fill="#ffbe79" data-fill-palette-color="accent"><g fill="#ffbe79" data-fill-palette-color="accent"><path d="M13.65 30.304c12.726-5.546 22.533-0.314 26.43 3.133 2.526 2.234 3.821 3.676 5.912 7.297 0.409 0.708 1.077 1.775 0.195 2.446-0.617 0.47-1.302 0.164-1.693-0.387-1.763-2.477-4.289-5.109-8.396-6.525-3.249-1.12-10.373-3.021-17.931 2.246-2.198 1.531-5.309 0.907-6.724-1.389C9.938 34.682 11.033 31.444 13.65 30.304z" fill="#ffbe79" data-fill-palette-color="accent"></path><path d="M86.351 69.695c-12.726 5.546-22.533 0.314-26.43-3.133-2.526-2.234-3.821-3.676-5.912-7.297-0.409-0.708-1.077-1.775-0.196-2.446 0.618-0.47 1.302-0.164 1.694 0.387 1.763 2.477 4.289 5.109 8.396 6.525 3.249 1.12 10.373 3.021 17.931-2.245 2.198-1.532 5.309-0.908 6.724 1.388C90.063 65.317 88.968 68.555 86.351 69.695z" fill="#ffbe79" data-fill-palette-color="accent"></path></g><g fill="#ffbe79" data-fill-palette-color="accent"><path d="M30.304 86.351c-5.546-12.726-0.314-22.533 3.133-26.43 2.235-2.525 3.676-3.821 7.298-5.912 0.708-0.409 1.775-1.076 2.445-0.195 0.47 0.617 0.164 1.302-0.387 1.693-2.477 1.764-5.109 4.289-6.525 8.396-1.12 3.248-3.021 10.372 2.246 17.931 1.531 2.198 0.908 5.31-1.389 6.725C34.683 90.062 31.445 88.968 30.304 86.351z" fill="#ffbe79" data-fill-palette-color="accent"></path><path d="M69.696 13.649c5.546 12.726 0.314 22.533-3.133 26.43-2.234 2.526-3.675 3.821-7.297 5.913-0.708 0.408-1.775 1.076-2.446 0.195-0.47-0.618-0.163-1.303 0.388-1.694 2.477-1.763 5.109-4.288 6.525-8.396 1.12-3.249 3.021-10.372-2.246-17.932-1.532-2.198-0.908-5.309 1.388-6.724C65.318 9.938 68.556 11.032 69.696 13.649z" fill="#ffbe79" data-fill-palette-color="accent"></path></g></g><g fill="#ffbe79" data-fill-palette-color="accent"><g fill="#ffbe79" data-fill-palette-color="accent"><path d="M8.671 51.118c8.248-11.166 19.357-11.539 24.456-10.502 3.305 0.672 5.147 1.272 8.769 3.363 0.708 0.408 1.82 0.999 1.392 2.021-0.299 0.716-1.045 0.793-1.66 0.512-2.765-1.263-6.269-2.28-10.533-1.453-3.374 0.654-10.494 2.57-14.406 10.911-1.138 2.425-4.144 3.44-6.518 2.159C7.646 56.766 6.976 53.414 8.671 51.118z" fill="#ffbe79" data-fill-palette-color="accent"></path><path d="M91.329 48.882C83.081 60.047 71.971 60.42 66.874 59.383c-3.305-0.672-5.147-1.272-8.769-3.363-0.708-0.408-1.82-0.999-1.393-2.021 0.3-0.716 1.046-0.793 1.66-0.512 2.766 1.264 6.269 2.28 10.534 1.453 3.373-0.654 10.493-2.569 14.406-10.91 1.138-2.426 4.144-3.441 6.517-2.16C92.354 43.233 93.025 46.585 91.329 48.882z" fill="#ffbe79" data-fill-palette-color="accent"></path></g><g fill="#ffbe79" data-fill-palette-color="accent"><path d="M51.119 91.329C39.953 83.081 39.58 71.972 40.617 66.874c0.673-3.305 1.272-5.147 3.364-8.77 0.409-0.708 1-1.819 2.02-1.392 0.716 0.3 0.793 1.045 0.512 1.66-1.263 2.765-2.28 6.269-1.453 10.533 0.654 3.374 2.57 10.493 10.911 14.406 2.425 1.138 3.44 4.144 2.159 6.518C56.766 92.354 53.415 93.025 51.119 91.329z" fill="#ffbe79" data-fill-palette-color="accent"></path><path d="M48.882 8.672c11.166 8.247 11.538 19.356 10.501 24.455-0.672 3.305-1.271 5.147-3.362 8.77-0.409 0.707-1 1.819-2.021 1.392-0.716-0.3-0.792-1.046-0.511-1.661 1.263-2.765 2.28-6.268 1.453-10.533-0.655-3.373-2.57-10.492-10.911-14.406-2.426-1.137-3.44-4.144-2.159-6.517C43.234 7.646 46.585 6.976 48.882 8.672z" fill="#ffbe79" data-fill-palette-color="accent"></path></g></g></g></svg></g></svg></g></svg></g><defs></defs></svg><rect width="395.52" height="84.07108655995175" fill="none" stroke="none" visibility="hidden"></rect></g></svg></g></svg>